<?xml version="1.0" encoding="UTF-8" standalone="no"?>
<svg
   width="150mm"
   height="150mm"
   viewBox="0 0 150 150"
   version="1.1"
   id="svg863"
   xmlns="http://www.w3.org/2000/svg"
   xmlns:svg="http://www.w3.org/2000/svg"
   xmlns:rdf="http://www.w3.org/1999/02/22-rdf-syntax-ns#"
   xmlns:cc="http://creativecommons.org/ns#"
   xmlns:dc="http://purl.org/dc/elements/1.1/">
  <defs
     id="defs857" />
  <metadata
     id="metadata860">
    <rdf:RDF>
      <cc:Work
         rdf:about="">
        <dc:format>image/svg+xml</dc:format>
        <dc:type
           rdf:resource="http://purl.org/dc/dcmitype/StillImage" />
      </cc:Work>
    </rdf:RDF>
  </metadata>
  <g
     id="layer1">
    <g
       id="g1"
       style="fill:#ffffff">
      <path
         style="font-style:normal;font-variant:normal;font-weight:normal;font-stretch:normal;font-size:50.8px;line-height:1.25;font-family:'Alegreya SC';-inkscape-font-specification:'Alegreya SC';fill:#ffffff;stroke-width:0.120605"
         d="m 77.33068,92.754028 c -1.465327,0.679733 -3.028696,1.144593 -4.651912,1.330152 -0.09407,0.01258 -0.189226,0.01853 -0.283704,0.02894 -0.02702,6.268972 0.0808,12.533392 0.548287,18.785932 0.09097,1.03098 0.191544,1.86218 0.481108,3.69177 0.363085,2.2807 0.509912,3.05892 0.963765,5.02191 0.247493,1.07094 0.474725,1.96602 0.571025,2.26291 0.0055,0.0195 0.02465,0.0911 0.02739,0.0966 0.0055,0.0108 0.01053,0.0163 0.01602,0.0248 8.98e-4,0.001 0.0038,0.0145 0.0057,0.015 0.0037,0.004 0.0072,0.004 0.01085,0.008 0.01887,0.0263 0.0356,0.036 0.05374,0.0331 0.01832,0.003 0.03539,-0.007 0.05426,-0.0331 0.0037,-0.003 0.0057,-0.004 0.0093,-0.008 8.98e-4,-9.1e-4 0.0028,-0.0137 0.0047,-0.015 0.0055,-0.009 0.0097,-0.0141 0.01705,-0.0248 0.0018,-0.005 0.02031,-0.0771 0.02635,-0.0966 0.09619,-0.29689 0.323532,-1.19197 0.571025,-2.26291 0.453851,-1.96299 0.600679,-2.74121 0.963765,-5.02191 0.374444,-2.36579 0.442597,-2.93283 0.567407,-4.62349 0.02761,-8.87987 0.03155,-13.300998 0.04393,-19.213302 z"
         id="path1" />
      <path
         style="font-style:normal;font-variant:normal;font-weight:normal;font-stretch:normal;font-size:50.8px;line-height:1.25;font-family:'Alegreya SC';-inkscape-font-specification:'Alegreya SC';fill:#ffffff;stroke-width:0.120605"
         d="m 74.852279,32.445565 c -0.804362,0.01521 -1.598839,0.125221 -2.237073,0.337964 -1.066555,0.35175 -1.600419,0.986729 -1.600419,1.900142 0,0.436851 0.08018,0.647133 0.380855,0.987537 0.436832,0.49358 0.645869,1.123189 0.861446,2.586922 0.317702,2.189924 0.414413,4.108117 0.397392,8.278048 -0.01099,3.835207 0.0051,4.1297 0.385506,5.315437 0.02272,0.0851 -0.163989,0.09095 -2.376599,0.08527 -2.836614,-0.01136 -2.791546,-0.02324 -3.302124,0.527099 -0.232616,0.255304 -0.420269,0.562506 -0.754993,1.231966 -0.243937,0.493581 -0.487409,1.032309 -0.544152,1.202511 -0.312021,0.97582 0.09068,1.116966 1.282092,0.441833 1.145981,-0.646767 1.96897,-0.907219 3.330546,-1.0604 0.816955,-0.09077 2.104841,-0.153382 2.133203,-0.102319 0.138754,4.949204 0.12205,9.903877 0.04393,14.860591 1.523142,0.504099 2.752788,1.822809 3.089734,3.411162 0.480961,-0.385569 0.952671,-0.789367 1.415417,-1.204061 -0.0019,-5.415145 -0.003,-10.514035 -0.01447,-17.095598 l 0.42633,0.01085 c 0.737514,0.01704 1.877094,0.125265 2.50114,0.233061 0.83394,0.141848 1.566196,0.402825 2.292366,0.805636 0.346065,0.192892 0.72059,0.396985 0.834058,0.453719 0.238257,0.119148 0.612559,0.136232 0.714685,0.03411 0.04892,-0.04894 0.07114,-0.140902 0.06821,-0.266133 h -0.0015 c -0.0055,-0.208709 -0.07984,-0.510336 -0.221692,-0.857829 -0.675108,-1.667973 -1.294314,-2.472952 -1.986442,-2.59209 -0.141812,-0.02268 -1.304228,-0.03979 -2.575037,-0.03411 -2.155813,0.01136 -2.31504,0.0055 -2.280998,-0.08527 0.02272,-0.05106 0.09101,-0.272249 0.147795,-0.49351 0.232597,-0.907741 0.249565,-1.219977 0.232544,-4.624007 -0.02272,-4.079156 0.07343,-6.172367 0.39119,-8.367964 0.215594,-1.531812 0.425595,-2.178575 0.839742,-2.655135 0.328815,-0.380111 0.424757,-0.630322 0.419096,-1.095541 -0.0055,-0.590026 -0.333852,-1.157179 -0.86713,-1.497583 -0.716242,-0.460959 -2.083995,-0.697776 -3.424597,-0.67231 z"
         id="path49" />
      <path
         id="path5"
         style="font-style:normal;font-variant:normal;font-weight:normal;font-stretch:normal;font-size:50.8px;line-height:1.25;font-family:'Alegreya SC';-inkscape-font-specification:'Alegreya SC';fill:#ffffff;stroke-width:0.805938"
         d="m 48.650186,58.248617 c -10.212959,0 -15.707568,3.713562 -15.707568,10.599353 0,4.796839 3.019181,8.820456 8.435144,11.45098 l -5.186247,7.968506 c -2.398497,3.481579 -4.409131,5.18418 -6.962366,5.18418 l -0.541569,0.696081 0.541569,3.480925 7.968506,0.620117 c 2.940091,0 5.262419,-1.702268 7.041948,-5.570719 l 5.182629,-10.135299 h 4.334619 l 0.07596,5.956225 c 0,3.945791 -0.46392,4.410233 -4.564579,4.565096 l -0.310058,0.387574 0.697631,4.101041 c 8e-6,-0.07712 7.968858,-0.155546 9.825757,-0.155546 3.945916,0 8.511625,0.386023 8.511625,0.386023 l -0.49506,-4.098458 c -0.725774,-0.213673 -1.429094,-0.494529 -2.095996,-0.842842 -0.636416,-0.22792 -1.119834,-0.528202 -1.474845,-0.93586 -0.720692,-0.543464 -1.375039,-1.177726 -1.928048,-1.914612 -3.481873,-4.903477 -3.028067,-11.98975 0.556038,-16.715776 0.137435,-0.186943 0.282118,-0.370039 0.431499,-0.550354 l -0.02429,-7.048665 c 0,-2.166287 0.465234,-2.78691 1.935282,-2.78691 0.928453,0 2.243791,0.07958 2.243791,0.07958 l 0.464054,-0.542086 -0.620117,-3.946529 c 0,0 -5.724148,0.07751 -8.200016,0.07751 -2.707981,0 -10.135299,-0.309541 -10.135299,-0.309541 z m 3.325378,5.646683 c 0.851079,0 1.006285,0.233191 1.083655,1.393714 0.309454,4.255263 0.464055,7.735828 0.464055,11.217403 l -5.492688,0.6196 c -1.702161,-0.618947 -5.184697,-2.243704 -5.184697,-7.117912 0,-4.177863 2.940004,-6.112805 9.129675,-6.112805 z" />
      <path
         id="path23-9"
         style="font-style:normal;font-variant:normal;font-weight:normal;font-stretch:normal;font-size:50.8px;line-height:1.25;font-family:'Alegreya SC';-inkscape-font-specification:'Alegreya SC';fill:#ffffff;stroke-width:0.805938"
         d="m 101.34981,58.248617 c 0,0 -7.42732,0.309541 -10.135297,0.309541 -2.475868,0 -8.200533,-0.07751 -8.200533,-0.07751 l -0.6196,3.946529 0.285253,0.333313 c 0.07714,-0.276477 0.167514,-0.548779 0.288872,-0.810287 0.636389,-1.109132 2.063906,-0.963517 3.150195,-0.971517 0.10152,-0.0074 0.203381,-0.01482 0.304891,-0.02222 0.32032,0.230993 0.358056,0.900064 0.559656,1.305863 0.500579,1.780759 1.493006,3.691828 0.760677,5.550049 -0.227228,0.375011 -0.467776,0.740483 -0.717786,1.098641 l -0.0279,8.105448 c 0.4952,0.06919 0.991533,0.131866 1.491382,0.173116 0.991889,-0.331511 1.591308,-1.342181 2.365747,-2.01383 0.727299,-1.079223 2.379773,-0.854004 3.152262,0.06253 0.899309,0.65414 1.57514,1.986103 0.796851,2.986381 -1.370599,1.458734 -2.660334,3.002313 -4.067452,4.430221 -1.019647,0.987357 -2.45332,0.779185 -3.759977,0.554488 l -0.01757,5.135604 c 0,3.404209 -0.929414,4.486906 -4.411101,4.951119 l -0.541569,4.487064 c 0,0 4.565709,-0.386023 8.511625,-0.386023 1.856899,0 9.825744,0.07843 9.825754,0.155546 l 0.69712,-4.101041 -0.30954,-0.387574 c -4.100659,-0.154863 -4.5651,-0.619305 -4.5651,-4.565096 l 0.07648,-5.956225 h 4.33462 l 5.18263,10.135299 c 1.77953,3.868451 4.10186,5.570719 7.04195,5.570719 l 7.9685,-0.620117 0.54157,-3.480925 -0.54157,-0.696081 c -2.55324,0 -4.56438,-1.702601 -6.96288,-5.18418 l -5.18573,-7.968506 c 5.41596,-2.630524 8.43514,-6.654141 8.43514,-11.45098 0,-6.885791 -5.49461,-10.599353 -15.70756,-10.599353 z M 98.024433,63.8953 c 6.189677,0 9.129677,1.934942 9.129677,6.112805 0,4.874208 -3.48254,6.498965 -5.1847,7.117912 l -5.492686,-0.6196 c 0,-3.481575 0.154605,-6.96214 0.464054,-11.217403 0.0774,-1.160523 0.232576,-1.393714 1.083655,-1.393714 z" />
      <path
         id="path1454-7-3"
         style="font-style:normal;font-variant:normal;font-weight:normal;font-stretch:normal;font-size:50.8px;line-height:1.25;font-family:'Alegreya SC';-inkscape-font-specification:'Alegreya SC';fill:#ffffff;stroke-width:0.223537"
         d="m 84.558376,62.591803 -0.30012,0.25737 c -0.64379,4.592269 -4.03455,8.798781 -10.300863,13.047703 l -0.171434,-0.08593 c 0,0 0.686608,-0.901388 0.686608,-2.188939 0,-2.060084 -1.373706,-3.304786 -3.777225,-3.304786 -4.764087,0 -9.485109,5.322071 -9.485109,11.802741 0,6.351923 3.776821,10.471845 9.914352,10.471845 6.223401,0 12.189781,-4.807057 14.035331,-11.244818 l 3.69084,0.515172 0.77255,-0.300122 3.90588,-4.292376 v -0.256938 l -0.98716,-0.944409 h -0.3433 c 0,0 -2.53258,2.74643 -3.21928,2.74643 -1.9314,0 -7.16758,-1.201348 -9.01313,-1.201348 l -0.68662,0.257803 -4.03458,4.291513 v 0.214618 l 1.11585,0.943978 h 0.25737 c 0,0 2.44667,-2.70368 3.34798,-2.70368 l 2.57498,0.343735 c -1.15882,5.579394 -4.89248,8.88358 -10.085807,8.88358 -4.37783,0 -7.296626,-2.274731 -8.283776,-5.965713 12.146333,-6.738181 16.610043,-10.042588 20.086543,-14.033999 0.64381,-0.686694 2.18895,-2.489237 2.18895,-3.21885 0,-1.244634 -1.02992,-4.034576 -1.02992,-4.034576 z M 69.236199,73.149582 c 1.115909,0 1.845639,0.687103 1.845639,1.888818 0,2.231757 -1.330317,3.604903 -7.081563,7.038376 v -1.287714 c 0,-4.420586 2.446134,-7.63948 5.235924,-7.63948 z" />
    </g>
  </g>
</svg>
